<svg width="67" height="68" viewBox="0 0 67 68" fill="none" xmlns="http://www.w3.org/2000/svg">
<g filter="url(#filter0_d_218_301)">
<path d="M31.4749 57.9841H35.5251C36.8345 57.9841 37.8146 57.1947 38.0938 55.9193L38.9381 52.3562C39.106 51.6473 39.6627 51.0722 40.3389 50.8009C41.0025 50.5347 41.7269 50.5796 42.3367 50.9528L45.4805 52.8769C46.5631 53.5537 47.8262 53.4414 48.734 52.5416L51.5756 49.7181C52.4833 48.8104 52.606 47.477 51.8848 46.3984L49.9474 43.2568C49.5878 42.6737 49.5632 41.9452 49.8213 41.3106C50.0893 40.6519 50.6307 40.1352 51.3224 39.9702L54.9535 39.104C56.2289 38.8287 57 37.8447 57 36.5353V32.5594C57 31.2719 56.2289 30.2921 54.9535 30.0089L51.3981 29.1551C50.6877 28.9845 50.1037 28.3931 49.8282 27.7165C49.5663 27.0732 49.6266 26.4003 49.9872 25.8067L51.9331 22.6039C52.6361 21.5134 52.5458 20.2463 51.6118 19.3465L48.7221 16.4969C47.8002 15.6572 46.6637 15.5046 45.5628 16.1173L42.356 18.0983C41.7382 18.4799 41.0109 18.5162 40.3388 18.2413C39.6767 17.9705 39.1125 17.4051 38.9492 16.7087L38.0938 13.0607C37.8146 11.7853 36.8345 10.9921 35.5251 10.9921H31.4749C30.1653 10.9921 29.1854 11.7853 28.8921 13.0647L28.0414 16.656C27.8749 17.3587 27.3337 17.9219 26.6654 18.1955C25.9809 18.4757 25.2147 18.4497 24.5853 18.0611L21.4371 16.1173C20.3324 15.5046 19.1857 15.6351 18.2558 16.5049L15.3881 19.3465C14.4542 20.2463 14.3498 21.5134 15.0709 22.6039L17.0123 25.8276C17.3633 26.4105 17.4312 27.0634 17.1784 27.695C16.9028 28.3836 16.3088 28.9863 15.5877 29.1594L12.0505 30.0089C10.7711 30.2921 10 31.2719 10 32.5594V36.5353C10 37.8447 10.7711 38.8287 12.0505 39.104L15.6681 39.9677C16.3662 40.1344 16.9165 40.6567 17.1827 41.3232C17.4338 41.9518 17.3997 42.6667 17.0463 43.244L15.1151 46.3984C14.3758 47.477 14.5205 48.8104 15.4283 49.7181L18.2518 52.5416C19.1556 53.4414 20.4408 53.5537 21.5233 52.8769L24.6524 50.9515C25.2586 50.5786 25.9853 50.5314 26.645 50.7984C27.3243 51.0732 27.8767 51.6495 28.0463 52.3624L28.8921 55.9193C29.1854 57.1947 30.1653 57.9841 31.4749 57.9841ZM33.502 42.2349C29.2464 42.2349 25.7612 38.7274 25.7612 34.472C25.7612 30.2384 29.2464 26.7532 33.502 26.7532C37.7534 26.7532 41.2387 30.2384 41.2387 34.472C41.2387 38.7274 37.7534 42.2349 33.502 42.2349Z" fill="#3965E3"/>
<path d="M37.1207 55.6887L37.1187 55.6971L37.1169 55.7055C36.9383 56.5214 36.3652 56.9841 35.5251 56.9841H31.4749C30.6364 56.9841 30.0567 56.5216 29.8667 55.6952L29.865 55.6879L29.0191 52.1311C28.7646 51.0608 27.9567 50.2503 27.0201 49.8714C26.0797 49.4909 25.0179 49.5525 24.1284 50.0998L20.9993 52.0251L20.9932 52.029C20.2843 52.4722 19.5153 52.3878 18.9581 51.8337C18.9578 51.8334 18.9576 51.8332 18.9573 51.8329L16.1354 49.011L16.1354 49.011C15.561 48.4366 15.4786 47.6369 15.94 46.9638L15.9545 46.9425L15.968 46.9205L17.8992 43.7661C18.4326 42.8947 18.4681 41.8455 18.1114 40.9523C17.7391 40.0203 16.9508 39.2458 15.9004 38.995L12.2828 38.1313L12.2718 38.1287L12.2608 38.1263C11.4559 37.9532 11 37.3877 11 36.5353V32.5594C11 31.7371 11.4488 31.1663 12.2666 30.9853L12.2754 30.9834L12.2841 30.9813L15.8212 30.1318C16.9203 29.8678 17.7368 28.991 18.1068 28.0666C18.4825 27.128 18.3723 26.1475 17.869 25.3117L15.9275 22.088L15.9166 22.0699L15.905 22.0523C15.4335 21.3393 15.5163 20.6116 16.0819 20.0666L16.082 20.0667L16.0919 20.0568L18.9485 17.2262C19.2752 16.9238 19.599 16.7841 19.8997 16.7481C20.1995 16.7122 20.5463 16.7711 20.9332 16.9815L24.06 18.912C24.9937 19.4885 26.1006 19.5072 27.0442 19.1209C27.9656 18.7438 28.763 17.9483 29.0145 16.8865L29.8652 13.2952L29.8652 13.2952L29.8668 13.2882C30.0577 12.4553 30.6395 11.9921 31.4749 11.9921H35.5251C36.3629 11.9921 36.9378 12.4564 37.1169 13.2746L37.1185 13.2818L37.1202 13.289L37.9756 16.937C38.227 18.0091 39.0615 18.7993 39.9603 19.1669C40.904 19.5528 41.97 19.5121 42.8815 18.949L46.0674 16.9811C46.4472 16.7738 46.7887 16.718 47.0866 16.7549C47.3869 16.7921 47.7101 16.932 48.0353 17.2241L50.9097 20.0585L50.9096 20.0586L50.918 20.0666C51.4772 20.6054 51.5604 21.3364 51.0926 22.0621L51.0854 22.0733L51.0785 22.0847L49.1326 25.2874C48.6115 26.1451 48.5178 27.15 48.902 28.0936C49.2719 29.0021 50.077 29.8663 51.1645 30.1274L54.7199 30.9813L54.7283 30.9833L54.7367 30.9851C55.5502 31.1657 56 31.7363 56 32.5594V36.5353C56 37.3886 55.5432 37.9537 54.7425 38.1264L54.7319 38.1287L54.7214 38.1312L51.0904 38.9975C50.0441 39.2471 49.268 40.0169 48.895 40.9338C48.5322 41.8256 48.5488 42.8939 49.0963 43.7817L51.0336 46.9233L51.0433 46.939L51.0535 46.9543C51.5145 47.6436 51.4323 48.4464 50.8694 49.0101C50.8691 49.0104 50.8688 49.0107 50.8685 49.011L48.03 51.8314C48.0297 51.8317 48.0295 51.8319 48.0292 51.8322C48.0292 51.8322 48.0292 51.8322 48.0292 51.8322C47.4659 52.3899 46.7173 52.4708 46.0107 52.029L46.0107 52.0289L46.0025 52.0239L42.8587 50.0999C41.9648 49.5527 40.907 49.4955 39.9666 49.8728C39.0349 50.2466 38.2187 51.0548 37.965 52.1257L37.1207 55.6887ZM24.7612 34.472C24.7612 39.2759 28.6904 43.2349 33.502 43.2349C38.3098 43.2349 42.2387 39.2756 42.2387 34.472C42.2387 29.6846 38.3042 25.7532 33.502 25.7532C28.696 25.7532 24.7612 29.6843 24.7612 34.472Z" stroke="#3965E3" stroke-width="2"/>
</g>
<defs>
<filter id="filter0_d_218_301" x="0" y="0.992065" width="67" height="66.9921" filterUnits="userSpaceOnUse" color-interpolation-filters="sRGB">
<feFlood flood-opacity="0" result="BackgroundImageFix"/>
<feColorMatrix in="SourceAlpha" type="matrix" values="0 0 0 0 0 0 0 0 0 0 0 0 0 0 0 0 0 0 127 0" result="hardAlpha"/>
<feOffset/>
<feGaussianBlur stdDeviation="5"/>
<feComposite in2="hardAlpha" operator="out"/>
<feColorMatrix type="matrix" values="0 0 0 0 0.223529 0 0 0 0 0.396078 0 0 0 0 0.890196 0 0 0 1 0"/>
<feBlend mode="normal" in2="BackgroundImageFix" result="effect1_dropShadow_218_301"/>
<feBlend mode="normal" in="SourceGraphic" in2="effect1_dropShadow_218_301" result="shape"/>
</filter>
</defs>
</svg>
