<svg width="67" height="67" viewBox="0 0 67 67" fill="none" xmlns="http://www.w3.org/2000/svg">
<g filter="url(#filter0_d_218_295)">
<path d="M37.1207 54.6967L37.1187 54.705L37.1169 54.7134C36.9383 55.5293 36.3652 55.9921 35.5251 55.9921H31.4749C30.6364 55.9921 30.0567 55.5296 29.8667 54.7031L29.865 54.6959L29.0191 51.139C28.7646 50.0687 27.9567 49.2582 27.0201 48.8793C26.0797 48.4988 25.0179 48.5605 24.1284 49.1078L20.9993 51.0331L20.9932 51.0369C20.2843 51.4801 19.5153 51.3958 18.9581 50.8416C18.9578 50.8414 18.9576 50.8411 18.9573 50.8409L16.1354 48.019L16.1354 48.0189C15.561 47.4445 15.4786 46.6448 15.94 45.9717L15.9545 45.9505L15.968 45.9285L17.8992 42.7741C18.4326 41.9027 18.4681 40.8534 18.1114 39.9603C17.7391 39.0282 16.9508 38.2538 15.9004 38.003L12.2828 37.1392L12.2718 37.1366L12.2608 37.1342C11.4559 36.9611 11 36.3956 11 35.5432V31.5674C11 30.7451 11.4488 30.1742 12.2666 29.9932L12.2754 29.9913L12.2841 29.9892L15.8212 29.1397C16.9203 28.8758 17.7368 27.999 18.1068 27.0745C18.4825 26.1359 18.3723 25.1554 17.869 24.3197L15.9275 21.0959L15.9166 21.0779L15.905 21.0603C15.4335 20.3472 15.5163 19.6196 16.0819 19.0745L16.082 19.0746L16.0919 19.0647L18.9485 16.2341C19.2752 15.9318 19.599 15.792 19.8997 15.756C20.1995 15.7202 20.5463 15.779 20.9332 15.9894L24.06 17.9199C24.9937 18.4964 26.1006 18.5151 27.0442 18.1289C27.9656 17.7517 28.763 16.9562 29.0145 15.8945L29.8652 12.3032L29.8652 12.3032L29.8668 12.2961C30.0577 11.4632 30.6395 11 31.4749 11H35.5251C36.3629 11 36.9378 11.4644 37.1169 12.2825L37.1185 12.2898L37.1202 12.297L37.9756 15.9449C38.227 17.0171 39.0615 17.8072 39.9603 18.1748C40.904 18.5608 41.97 18.5201 42.8815 17.957L46.0674 15.989C46.4472 15.7818 46.7887 15.7259 47.0866 15.7628C47.3869 15.8 47.7101 15.94 48.0353 16.232L50.9097 19.0665L50.9096 19.0665L50.918 19.0746C51.4772 19.6133 51.5604 20.3443 51.0926 21.07L51.0854 21.0812L51.0785 21.0926L49.1326 24.2954C48.6115 25.1531 48.5178 26.1579 48.902 27.1015C49.2719 28.01 50.077 28.8742 51.1645 29.1354L54.7199 29.9892L54.7283 29.9912L54.7367 29.9931C55.5502 30.1737 56 30.7442 56 31.5674V35.5432C56 36.3965 55.5432 36.9616 54.7425 37.1344L54.7319 37.1367L54.7214 37.1392L51.0904 38.0054C50.0441 38.255 49.268 39.0248 48.895 39.9417C48.5322 40.8336 48.5488 41.9019 49.0963 42.7896L51.0336 45.9312L51.0433 45.9469L51.0535 45.9622C51.5145 46.6515 51.4323 47.4544 50.8694 48.018C50.8691 48.0183 50.8688 48.0186 50.8685 48.019L48.03 50.8393C48.0297 50.8396 48.0295 50.8399 48.0292 50.8401C48.0292 50.8401 48.0292 50.8402 48.0292 50.8402C47.4659 51.3979 46.7173 51.4787 46.0107 51.0369L46.0107 51.0369L46.0025 51.0318L42.8587 49.1078C41.9648 48.5607 40.907 48.5034 39.9666 48.8807C39.0349 49.2545 38.2187 50.0627 37.965 51.1336L37.1207 54.6967ZM24.7612 33.4799C24.7612 38.2839 28.6904 42.2429 33.502 42.2429C38.3098 42.2429 42.2387 38.2835 42.2387 33.4799C42.2387 28.6926 38.3042 24.7612 33.502 24.7612C28.696 24.7612 24.7612 28.6922 24.7612 33.4799Z" stroke="#3965E3" stroke-width="2" shape-rendering="crispEdges"/>
</g>
<defs>
<filter id="filter0_d_218_295" x="0" y="0" width="67" height="66.9921" filterUnits="userSpaceOnUse" color-interpolation-filters="sRGB">
<feFlood flood-opacity="0" result="BackgroundImageFix"/>
<feColorMatrix in="SourceAlpha" type="matrix" values="0 0 0 0 0 0 0 0 0 0 0 0 0 0 0 0 0 0 127 0" result="hardAlpha"/>
<feOffset/>
<feGaussianBlur stdDeviation="5"/>
<feComposite in2="hardAlpha" operator="out"/>
<feColorMatrix type="matrix" values="0 0 0 0 0.223529 0 0 0 0 0.396078 0 0 0 0 0.890196 0 0 0 1 0"/>
<feBlend mode="normal" in2="BackgroundImageFix" result="effect1_dropShadow_218_295"/>
<feBlend mode="normal" in="SourceGraphic" in2="effect1_dropShadow_218_295" result="shape"/>
</filter>
</defs>
</svg>
